<?xml version="1.0" encoding="UTF-8" standalone="no"?>
<svg
   version="1.1"
   width="612pt"
   height="792pt"
   id="svg124"
   viewBox="0 0 612 792"
   sodipodi:docname="vicinum_F63.svg"
   inkscape:version="1.2.2 (732a01da63, 2022-12-09)"
   xmlns:inkscape="http://www.inkscape.org/namespaces/inkscape"
   xmlns:sodipodi="http://sodipodi.sourceforge.net/DTD/sodipodi-0.dtd"
   xmlns="http://www.w3.org/2000/svg"
   xmlns:svg="http://www.w3.org/2000/svg">
  <defs
     id="defs128" />
  <sodipodi:namedview
     id="namedview126"
     pagecolor="#ffffff"
     bordercolor="#666666"
     borderopacity="1.0"
     inkscape:showpageshadow="2"
     inkscape:pageopacity="0.0"
     inkscape:pagecheckerboard="0"
     inkscape:deskcolor="#d1d1d1"
     showgrid="false"
     inkscape:zoom="0.89393939"
     inkscape:cx="344.54237"
     inkscape:cy="318.25424"
     inkscape:window-width="1920"
     inkscape:window-height="1010"
     inkscape:window-x="1913"
     inkscape:window-y="-6"
     inkscape:window-maximized="1"
     inkscape:current-layer="svg124"
     showguides="true"
     inkscape:document-units="pt" />
  <g
     id="g1981"
     inkscape:export-filename="g1981.png"
     inkscape:export-xdpi="18.738832"
     inkscape:export-ydpi="18.738832">
    <rect
       style="fill:#ffffff;fill-opacity:0.923077;stroke:#000000;stroke-width:0.0000000227752;stroke-miterlimit:0"
       id="rect632"
       width="525"
       height="384.22882"
       x="26.847458"
       y="61.245766"
       ry="8.1164551" />
    <text
       x="85.056046"
       y="423.0665"
       id="text4"><tspan
         font-family="Arial"
         font-size="32px"
         fill="#808000"
         id="tspan2">Boosting Our Neighbourhoods</tspan></text>
    <text
       x="80.775803"
       y="380.36301"
       id="text8"><tspan
         font-family="Broadway"
         font-size="55px"
         fill="#1b1918"
         id="tspan6">VICINUM.</tspan></text>
    <text
       x="369.51825"
       y="380.48224"
       id="text12"><tspan
         font-family="'Wide Latin'"
         font-size="24px"
         fill="#1b1918"
         id="tspan10">COM</tspan></text>
    <g
       id="Layer1000">
      <path
         d="m 364.8553,223.6691 v 15.8994 h 8.2062 v -15.8994 z"
         style="fill:#800080;fill-rule:evenodd"
         id="path14" />
      <path
         d="m 384.3449,223.6691 v 15.8994 h 12.8222 v -15.8994 z"
         style="fill:#800080;fill-rule:evenodd"
         id="path16" />
      <path
         d="m 409.4763,223.6691 v 15.8994 h 10.2577 v -15.8994 z"
         style="fill:#800080;fill-rule:evenodd"
         id="path18" />
      <path
         d="m 364.8553,249.3134 v 16.4123 h 8.2062 v -16.4123 z"
         style="fill:#800080;fill-rule:evenodd"
         id="path20" />
      <path
         d="m 384.3449,249.3134 v 16.4123 h 12.8222 v -16.4123 z"
         style="fill:#800080;fill-rule:evenodd"
         id="path22" />
      <path
         d="m 409.4763,249.3134 v 16.4123 h 10.2577 v -16.4123 z"
         style="fill:#800080;fill-rule:evenodd"
         id="path24" />
      <path
         d="m 364.8553,302.6534 v 19.2616 h 8.2062 v -19.2616 z"
         style="fill:#800080;fill-rule:evenodd"
         id="path26" />
      <path
         d="m 384.3449,302.6534 v 19.2616 h 12.8222 v -19.2616 z"
         style="fill:#800080;fill-rule:evenodd"
         id="path28" />
      <path
         d="M 409.4763,302.6534 V 321.915 H 419.734 V 302.6534 Z"
         style="fill:#800080;fill-rule:evenodd"
         id="path30" />
      <path
         d="m 434.0948,302.6534 v 19.2616 h 13.8478 v -19.2616 z"
         style="fill:#800080;fill-rule:evenodd"
         id="path32" />
      <path
         d="m 458.7132,302.6534 v 19.2616 h 14.8737 v -19.2616 z"
         style="fill:#800080;fill-rule:evenodd"
         id="path34" />
      <path
         d="m 481.2801,302.6534 v 19.4896 h 14.3608 v -19.4896 z"
         style="fill:#800080;fill-rule:evenodd"
         id="path36" />
      <path
         d="m 364.8553,277.522 v 13.335 h 8.2062 v -13.335 z"
         style="fill:#800080;fill-rule:evenodd"
         id="path38" />
      <path
         d="m 384.3449,277.522 v 13.335 h 12.8222 v -13.335 z"
         style="fill:#800080;fill-rule:evenodd"
         id="path40" />
      <path
         d="m 409.4763,277.522 v 13.335 h 10.2577 v -13.335 z"
         style="fill:#800080;fill-rule:evenodd"
         id="path42" />
      <path
         d="m 434.0948,277.522 v 13.335 h 13.8478 v -13.335 z"
         style="fill:#800080;fill-rule:evenodd"
         id="path44" />
      <path
         d="m 458.7132,277.522 v 13.335 h 14.8737 v -13.335 z"
         style="fill:#800080;fill-rule:evenodd"
         id="path46" />
      <path
         d="m 481.2801,277.522 v 13.335 h 14.3608 v -13.335 z"
         style="fill:#800080;fill-rule:evenodd"
         id="path48" />
    </g>
    <path
       d="m 361.778,186.7414 h 162.5845 v 136.4273 l -20.4861,-0.3326 -0.2371,-54.1773 -76.212,0.1442 0.0133,-10.6703 76.6219,-0.1299 -0.2225,-6.5968 -76.2657,0.3336 -0.003,-11.6588 76.3171,0.007 0.0648,-5.6476 H 427.548 l 0.0471,-11.0881 76.3819,0.0633 -0.1936,-12.084 -124.0994,0.0204 0.045,9.2399 h -17.951 z"
       style="fill:#6d91c6;fill-rule:evenodd"
       id="path51" />
    <path
       d="m 273.5619,122.118 h 138.4788 v 57.9559 l -20.3206,0.1542 -0.3203,-45.3389 -10.645,0.0509 -0.2466,44.987 -17.1915,0.1468 V 134.9401 H 351.0074 V 322.143 H 335.108 V 134.9401 H 317.1571 V 253.9293 H 302.2834 V 134.9401 h -14.3608 v 118.9892 h -14.3607 z"
       style="fill:#ffcb00;fill-rule:evenodd"
       id="path53" />
    <path
       d="M 215.093,258.5453 V 322.143 H 319.7215 V 258.5453 Z"
       style="fill:#e30016;fill-rule:evenodd"
       id="path55" />
    <path
       d="M 74.5626,322.143 V 194.9476 l 32.3138,0.2506 0.0912,-8.109 -10.918,-0.0483 -0.2957,-13.2497 -8.4417,-0.2676 0.1219,-13.2358 -4.1924,-0.1968 -0.0589,-11.7464 22.7173,0.0157 -0.009,-17.1332 14.8077,0.118 0.0189,-50.7729 18.2809,0.1868 -0.0148,50.6249 13.7091,-0.3906 -0.1784,17.2924 24.2168,-0.0692 -0.0491,11.6279 -5.7524,0.1625 0.2655,13.7532 -6.1218,0.0198 0.0358,13.4131 -12.9109,-0.1169 0.3578,7.617 28.6866,0.0896 V 322.143 h -14.361 V 204.6924 H 88.4105 V 322.143 Z"
       style="fill:#9edbf4;fill-rule:evenodd"
       id="path57" />
    <g
       id="Layer1001">
      <path
         d="m 100.2068,211.8728 v 14.3607 h 10.2577 v -14.3607 z"
         style="fill:#9edbf4;fill-rule:evenodd"
         id="path59" />
      <path
         d="m 121.2351,211.8728 v 14.3607 h 9.7448 v -14.3607 z"
         style="fill:#9edbf4;fill-rule:evenodd"
         id="path61" />
      <path
         d="m 142.2634,211.8728 v 14.3607 h 9.7448 v -14.3607 z"
         style="fill:#9edbf4;fill-rule:evenodd"
         id="path63" />
      <path
         d="m 100.2068,232.901 v 9.7449 h 10.2577 v -9.7449 z"
         style="fill:#9edbf4;fill-rule:evenodd"
         id="path65" />
      <path
         d="m 121.2351,232.901 v 9.7449 h 9.7448 v -9.7449 z"
         style="fill:#9edbf4;fill-rule:evenodd"
         id="path67" />
      <path
         d="m 142.2634,232.901 v 9.7449 h 9.7448 v -9.7449 z"
         style="fill:#9edbf4;fill-rule:evenodd"
         id="path69" />
      <path
         d="m 100.2068,255.468 v 12.8221 h 10.2577 V 255.468 Z"
         style="fill:#9edbf4;fill-rule:evenodd"
         id="path71" />
      <path
         d="m 121.2351,255.468 v 12.8221 h 9.7448 V 255.468 Z"
         style="fill:#9edbf4;fill-rule:evenodd"
         id="path73" />
      <path
         d="m 142.2634,255.468 v 12.8221 h 9.7448 V 255.468 Z"
         style="fill:#9edbf4;fill-rule:evenodd"
         id="path75" />
      <path
         d="m 100.2068,280.5993 v 10.2577 h 10.2577 v -10.2577 z"
         style="fill:#9edbf4;fill-rule:evenodd"
         id="path77" />
      <path
         d="m 121.2351,280.5993 v 10.2577 h 9.7448 v -10.2577 z"
         style="fill:#9edbf4;fill-rule:evenodd"
         id="path79" />
      <path
         d="m 142.2634,280.5993 v 10.2577 h 9.7448 v -10.2577 z"
         style="fill:#9edbf4;fill-rule:evenodd"
         id="path81" />
      <path
         d="m 100.2068,303.1662 v 9.7448 h 10.2577 v -9.7448 z"
         style="fill:#9edbf4;fill-rule:evenodd"
         id="path83" />
      <path
         d="m 121.2351,303.1662 v 9.7448 h 9.7448 v -9.7448 z"
         style="fill:#9edbf4;fill-rule:evenodd"
         id="path85" />
      <path
         d="m 142.2634,303.1662 v 9.7448 h 9.7448 v -9.7448 z"
         style="fill:#9edbf4;fill-rule:evenodd"
         id="path87" />
    </g>
    <path
       d="M 191.5003,322.143 V 169.8162 h 63.5977 v 82.0616 h -49.2369 v 70.2652 z"
       style="fill:#008080;fill-rule:evenodd"
       id="path90" />
    <g
       id="Layer1002">
      <path
         d="m 105.3357,146.7364 -10.5193,-5.2744 -8.0319,-2.4345 -8.2372,-0.4185 -8.6007,1.9728 v -9.7448 l 7.7019,-0.5481 8.6199,1.5827 10.1224,2.3153 8.9449,4.8562 z"
         style="fill:#eceded;fill-rule:evenodd"
         id="path92" />
      <path
         d="m 152.5211,145.1978 5.6444,-1.8645 4.6133,-3.7773 4.8305,-1.3306 1.2451,-4.9421 5.0374,-2.9761 6.8379,1.0427 4.616,3.5902 1.0932,4.1045 8.6555,-0.7487 10.7797,-1.4236 9.1692,0.2779 6.7208,4.9235 11.1961,0.2575 8.8028,1.8408 10.2867,5.4866 6.6385,2.7196 7.2742,4.9172 7.5995,5.3404 v -10.2576 l -6.5817,-6.2745 -7.1517,-3.0945 -8.3207,-2.9403 -8.8839,-3.6938 -10.6057,-1.435 -7.0354,-0.9151 -7.3328,-3.9575 -9.1694,-1.9698 -6.6826,0.4531 -7.2204,2.2862 -5.6417,-4.1031 -7.2627,-3.6514 -8.1239,-0.4517 -7.1803,3.5902 -7.7922,6.0599 -6.0557,5.7365 z"
         style="fill:#eceded;fill-rule:evenodd"
         id="path94" />
      <path
         d="m 316.1313,121.6051 7.6933,-7.1804 4.2918,-5.893 6.8371,-2.1465 9.5593,-1.185 7.9519,-5.8691 10.8685,-2.2829 11.2832,-2.5434 8.7028,-0.5955 9.7406,1.0708 11.2876,2.5194 6.8496,2.8687 5.8684,-3.7252 6.7717,-5.2981 8.4183,-1.4469 8.5069,1.4469 7.1803,5.6417 9.511,2.7802 6.5006,6.2907 10.1456,0.161 11.7963,0.5129 6.6101,4.1777 7.2378,6.5929 8.133,3.4694 7.3207,1.2714 8.139,1.4138 v 9.2319 l -8.2953,-0.9926 -10.1686,-1.5718 -9.5853,-4.6074 -7.4825,-5.9125 -9.0893,-4.3537 -11.8703,-0.159 -9.158,-0.3539 -5.1288,-6.6675 -6.8155,-1.3064 -4.468,-6.3869 -8.719,-2.5644 -7.437,2.3081 -4.1469,6.5009 -0.7253,9.1419 -6.5483,-0.1278 -3.7094,-6.0268 -8.1784,-4.2063 -8.7468,-2.9741 -11.2835,-1.5386 -12.8221,2.5644 -11.7079,2.7296 -4.8512,5.4819 -8.5722,2.5591 -6.4855,0.8068 -4.2851,6.3736 z"
         style="fill:#eceded;fill-rule:evenodd"
         id="path96" />
    </g>
    <g
       id="Layer1003">
      <path
         d="m 379.729,194.9476 v 8.2061 h 124.1181 v -8.2061 z"
         style="fill:#ffffff;fill-rule:evenodd"
         id="path99" />
      <path
         d="m 227.4022,293.9343 h 14.3608 v 12.3092 h -14.3608 z m 32.3118,0 h 14.3607 v 12.3092 H 259.714 Z m 31.2859,0 h 14.3608 v 12.3092 h -14.3608 z m 0,-25.1313 h 14.3608 v 12.3092 h -14.3608 z m -63.5977,0 h 14.3608 v 12.3092 h -14.3608 z m 32.3118,0 h 14.3607 v 12.3092 H 259.714 Z"
         style="fill:#ffffff;fill-rule:evenodd"
         id="path101" />
      <g
         id="Layer1004">
        <path
           d="m 116.1063,141.0947 v 9.7448 h 26.1571 v -9.7448 z"
           style="fill:#ffffff;fill-rule:evenodd"
           id="path103" />
        <path
           d="m 98.6682,157.507 v 6.1546 h 61.5461 v -6.1546 z"
           style="fill:#ffffff;fill-rule:evenodd"
           id="path105" />
        <path
           d="m 102.7713,169.3033 v 6.1547 h 53.8529 v -6.1547 z"
           style="fill:#ffffff;fill-rule:evenodd"
           id="path107" />
        <path
           d="m 110.9774,179.0482 v 0.5128 h 36.4148 v 5.1289 h -8.719 v 9.7448 l -18.4603,-0.1844 0.0524,-9.5604 h -9.2879 z"
           style="fill:#ffffff;fill-rule:evenodd"
           id="path109" />
      </g>
      <g
         id="Layer1005">
        <path
           d="m 205.8611,178.5353 v 4.6159 h 39.4921 v -4.6159 z"
           style="fill:#ffffff;fill-rule:evenodd"
           id="path112" />
        <path
           d="m 205.8611,191.8703 v 9.7448 h 39.4921 v -9.7448 z"
           style="fill:#ffffff;fill-rule:evenodd"
           id="path114" />
        <path
           d="m 205.8611,206.7439 v 4.616 h 39.4921 v -4.616 z"
           style="fill:#ffffff;fill-rule:evenodd"
           id="path116" />
        <path
           d="m 205.8611,223.1562 v 7.1804 h 39.4921 v -7.1804 z"
           style="fill:#ffffff;fill-rule:evenodd"
           id="path118" />
        <path
           d="m 205.8611,237.0041 v 6.6675 h 39.4921 v -6.6675 z"
           style="fill:#ffffff;fill-rule:evenodd"
           id="path120" />
      </g>
    </g>
  </g>
</svg>
